<?xml version="1.0" encoding="utf-8"?>
<!-- Generator: Adobe Illustrator 24.0.1, SVG Export Plug-In . SVG Version: 6.00 Build 0)  -->
<svg version="1.1" id="Layer_1" xmlns="http://www.w3.org/2000/svg" xmlns:xlink="http://www.w3.org/1999/xlink" x="0px" y="0px"
	 viewBox="0 0 595.28 841.89" style="enable-background:new 0 0 595.28 841.89;" xml:space="preserve">
<style type="text/css">
	.st0{display:none;fill:#FFFFFF;}
</style>
<g>
	<path class="st0" d="M85.59,238.26c0-23.7,0-47.41,0-71.11c128,0,256,0,384,0c0,128,0,256,0,384c-128,0-256,0-384,0
		c0-100.3,0-200.61,0-300.91c1.85,5.91,2.97,12.19,5.69,17.67c10.35,20.81,28.02,32.05,50.23,37.01c1.89,0.42,3.89,1.06,5.45,2.15
		c27.21,19.09,56.48,34.15,88.03,44.62c18.32,6.08,36.98,10.42,56.54,7.78c0.41-0.06,0.85,0.09,1.76,0.21
		c-3.38,5.46-6.38,10.61-9.73,15.51c-0.88,1.28-2.81,2.47-4.34,2.58c-7.83,0.57-15.69,0.79-23.55,1.09
		c-3.18,0.12-5.21,1.63-5.79,4.77c-0.68,3.72,2.27,6.57,6.78,6.41c9.1-0.32,18.19-0.87,27.29-1.13c3.22-0.09,5.34-1.34,6.99-4.07
		c3.98-6.62,8.16-13.13,12.18-19.72c0.92-1.51,1.64-2.51,3.77-1.8c4.7,1.56,9.5,2.81,14.71,4.31c0.45,6.72,1.01,13.79,1.29,20.87
		c0.04,1.06-1.02,2.45-1.96,3.21c-5.91,4.78-11.96,9.4-17.91,14.14c-3.54,2.81-4.18,5.85-1.97,8.65c2.13,2.7,5.5,2.8,8.92,0.14
		c7.09-5.51,14.1-11.12,21.23-16.58c2.65-2.03,3.58-4.45,3.28-7.78c-0.71-7.91-1.13-15.85-1.72-24.57c1.68,0.58,2.98,0.77,3.98,1.43
		c3.12,2.06,6.24,4.16,9.11,6.54c1.44,1.19,2.78,2.85,3.45,4.57c2.46,6.39,4.53,12.93,6.95,19.33c0.81,2.14,0.51,3.64-0.86,5.41
		c-4.35,5.62-8.51,11.38-12.75,17.09c-0.37,0.5-0.76,0.99-1.11,1.51c-2.15,3.18-1.86,6.33,0.75,8.29c2.58,1.94,5.9,1.42,8.18-1.57
		c4.76-6.25,9.07-12.88,14.19-18.81c4.32-5,5.1-9.75,2.26-15.63c-1.78-3.69-2.82-7.75-4.41-12.28c2.52,0.39,4.86,0.04,5.78,1.02
		c5.68,6.02,15.66,8.41,16.18,18.88c0.05,1.05,1.09,2.02,1.23,3.09c0.24,1.81,0.69,3.89,0.06,5.46c-2.36,5.83-3.24,11.68-2.11,17.92
		c0.28,1.54-0.23,3.67-1.17,4.92c-5.34,7.06-11.14,13.78-16.34,20.94c-2.49,3.43-4.93,4.13-9.05,3.42
		c-23.21-3.99-46.46-7.71-69.73-11.34c-13.12-2.05-24.15,11.04-19.06,23.22c4.23,10.12,9.95,19.61,19.09,26.34
		c2.77,2.04,5.81,3.69,9.02,5.71c-1.79,0.98-3.42,1.77-4.96,2.73c-10.86,6.76-11.43,23.05-0.39,29.41
		c11.84,6.82,24.51,11.91,38.78,9.61c14.34-2.31,26.14-8.61,33.71-21.59c5.65-9.69,11.56-19.23,17.07-28.99
		c1.72-3.04,3.72-4.45,7.19-4.7c10.71-0.76,19.52-5.51,26.71-13.4c4.87-5.35,9.69-10.75,14.75-15.92c1.35-1.38,3.42-2.53,5.3-2.81
		c13.32-1.97,24.46-12.85,26.07-26.2c0.82-6.8,0.94-13.68,1.6-20.5c0.18-1.88,0.81-3.91,1.83-5.47c5.85-8.94,5.87-18.28,2.17-27.89
		c-1.15-3-4.19-4.31-7.05-3.18c-2.94,1.16-4.17,3.44-3.53,6.57c0.3,1.46,0.84,2.87,1.21,4.31c2.55,9.86-2.77,18.41-12.69,20.44
		c-4.76,0.97-9.5,2.03-14.28,2.91c-6.23,1.15-12.45,2.78-18.74,3.09c-7.47,0.36-14.73-5.83-15.69-12.16
		c17.85-0.41,25.71-4.69,36.06-19.64c3.97-5.74,7.94-11.48,11.93-17.22c1.47-2.12,2.99-4.21,4.29-6.03c1.6,1.26,2.83,2.95,4.29,3.19
		c1.74,0.28,4.49-0.1,5.34-1.27c1.19-1.64,1.66-4.36,1.34-6.45c-0.76-4.96-3.2-9.47-2.64-14.88c1.6-15.48-6.89-28.46-21.53-33.82
		c-2.1-0.77-4.19-1.68-6.37-2.13c-2.75-0.57-3.64-2.04-4.03-4.77c-1.79-12.73-10.53-21.88-23.14-24.11
		c-6.13-1.08-12.38-1.4-18.54-2.35c-1.6-0.25-3.69-1.18-4.44-2.45c-6.5-11.09-16.07-15.8-28.77-14.79
		c-11.81,0.94-23.63,1.81-35.46,2.43c-1.95,0.1-4.08-1.04-5.95-1.97c-4.98-2.47-9.63-5.77-14.81-7.6
		c-10.6-3.74-21.22-0.29-31.77,1.17c-3.88,0.53-5.63,3.09-5.13,6.47c0.48,3.23,3.04,4.94,6.98,4.44c5.07-0.64,10.12-1.44,15.18-2.16
		c14.13-2.01,26.86,6.14,30.78,19.76c0.62,2.15,1.03,4.36,1.5,6.55c3.04,14.19,5.32,28.43,3.3,43.02
		c-2.13,15.46-9.9,23.4-25.18,25.63c-10.42,1.52-20.65,0.13-30.79-2.09c-24.42-5.35-47.14-15.17-69.1-26.82
		c-16.87-8.95-33.23-18.75-47.56-31.56c-2.43-2.17-4.52-4.73-7.25-7.63c9.2-2.02,17.49-3.74,25.71-5.72
		c2.25-0.54,3.48-0.24,4.98,1.68c4.87,6.22,11.48,8.78,19.22,7.25c7.9-1.56,13.09-6.55,15.16-14.33c0.61-2.29,1.65-2.95,3.7-3.3
		c10.8-1.87,21.59-3.81,32.38-5.8c4.37-0.8,6.49-3.35,5.8-6.7c-0.71-3.44-3.58-5-7.82-4.25c-10.92,1.93-21.85,3.8-32.75,5.85
		c-1.85,0.35-2.87,0.13-3.99-1.52c-4.85-7.13-11.82-9.98-20.13-8.36c-8.18,1.59-13.41,6.87-15.24,15.11
		c-0.48,2.17-1.44,3.03-3.57,3.48c-8.65,1.82-17.32,3.62-25.87,5.85c-8.43,2.19-10.84,7.73-7.29,15.62
		c0.18,0.41,0.35,0.82,0.52,1.24c-4.08-1.9-7.73-4.2-10.96-7c-16.24-14.05-21.62-34.51-13.16-52.59
		c8.72-18.63,22.85-32.17,43.02-37.1c32.36-7.9,60.79,1.04,85.37,23.08c1.48,1.33,2.71,2.96,4.25,4.21c2.45,2,5.13,2.03,7.45-0.15
		c2.31-2.18,2.5-4.82,0.58-7.4c-0.96-1.29-2.13-2.44-3.27-3.59c-17.06-17.09-37.98-26.37-61.62-29.37
		c-35-4.45-62.5,8.09-81.93,37.76C89.78,221.6,87.35,229.81,85.59,238.26z"/>
	<path d="M70.98,249.46c1.76-8.45,4.19-16.66,8.98-23.96c19.43-29.67,46.93-42.2,81.93-37.76c23.64,3,44.56,12.28,61.62,29.37
		c1.14,1.15,2.31,2.3,3.27,3.59c1.93,2.58,1.73,5.22-0.58,7.4c-2.32,2.19-5,2.16-7.45,0.15c-1.54-1.26-2.76-2.88-4.25-4.21
		c-24.58-22.04-53.01-30.98-85.37-23.08c-20.18,4.93-34.3,18.46-43.02,37.1c-8.47,18.09-3.08,38.54,13.16,52.59
		c3.23,2.79,6.88,5.1,10.96,7c-0.17-0.41-0.34-0.83-0.52-1.24c-3.55-7.9-1.14-13.43,7.29-15.62c8.55-2.22,17.22-4.03,25.87-5.85
		c2.13-0.45,3.09-1.31,3.57-3.48c1.83-8.24,7.05-13.51,15.24-15.11c8.31-1.62,15.28,1.23,20.13,8.36c1.12,1.64,2.13,1.86,3.99,1.52
		c10.9-2.04,21.83-3.92,32.75-5.85c4.24-0.75,7.11,0.81,7.82,4.25c0.69,3.35-1.43,5.9-5.8,6.7c-10.78,1.99-21.57,3.93-32.38,5.8
		c-2.06,0.36-3.1,1.02-3.7,3.3c-2.07,7.78-7.26,12.77-15.16,14.33c-7.75,1.53-14.35-1.03-19.22-7.25c-1.5-1.92-2.73-2.22-4.98-1.68
		c-8.22,1.98-16.51,3.7-25.71,5.72c2.73,2.89,4.82,5.45,7.25,7.63c14.32,12.81,30.68,22.61,47.56,31.56
		c21.96,11.65,44.69,21.47,69.1,26.82c10.14,2.22,20.37,3.62,30.79,2.09c15.29-2.23,23.05-10.18,25.18-25.63
		c2.02-14.59-0.27-28.83-3.3-43.02c-0.47-2.19-0.88-4.4-1.5-6.55c-3.93-13.62-16.65-21.77-30.78-19.76
		c-5.06,0.72-10.11,1.52-15.18,2.16c-3.94,0.5-6.5-1.21-6.98-4.44c-0.5-3.37,1.25-5.93,5.13-6.47c10.55-1.46,21.17-4.91,31.77-1.17
		c5.18,1.83,9.84,5.13,14.81,7.6c1.87,0.93,4,2.07,5.95,1.97c11.83-0.62,23.65-1.48,35.46-2.43c12.7-1.01,22.27,3.7,28.77,14.79
		c0.75,1.27,2.84,2.2,4.44,2.45c6.15,0.95,12.41,1.27,18.54,2.35c12.61,2.23,21.34,11.37,23.14,24.11c0.38,2.73,1.27,4.21,4.03,4.77
		c2.18,0.45,4.27,1.36,6.37,2.13c14.64,5.36,23.13,18.33,21.53,33.82c-0.56,5.41,1.88,9.92,2.64,14.88c0.32,2.09-0.15,4.8-1.34,6.45
		c-0.85,1.16-3.6,1.55-5.34,1.27c-1.46-0.23-2.69-1.93-4.29-3.19c-1.29,1.81-2.81,3.91-4.29,6.03c-3.99,5.73-7.96,11.48-11.93,17.22
		c-10.35,14.95-18.21,19.23-36.06,19.64c0.95,6.33,8.22,12.52,15.69,12.16c6.28-0.31,12.51-1.94,18.74-3.09
		c4.78-0.88,9.52-1.94,14.28-2.91c9.93-2.03,15.24-10.58,12.69-20.44c-0.37-1.45-0.92-2.85-1.21-4.31
		c-0.64-3.13,0.59-5.41,3.53-6.57c2.86-1.13,5.9,0.19,7.05,3.18c3.7,9.61,3.68,18.95-2.17,27.89c-1.02,1.57-1.65,3.6-1.83,5.47
		c-0.66,6.82-0.78,13.7-1.6,20.5c-1.61,13.35-12.75,24.23-26.07,26.2c-1.88,0.28-3.96,1.43-5.3,2.81
		c-5.06,5.16-9.88,10.57-14.75,15.92c-7.2,7.89-16.01,12.64-26.71,13.4c-3.47,0.25-5.48,1.66-7.19,4.7
		c-5.51,9.77-11.43,19.3-17.07,28.99c-7.56,12.97-19.36,19.27-33.71,21.59c-14.27,2.3-26.94-2.79-38.78-9.61
		c-11.04-6.36-10.47-22.65,0.39-29.41c1.54-0.96,3.17-1.75,4.96-2.73c-3.21-2.01-6.25-3.67-9.02-5.71
		c-9.14-6.73-14.86-16.22-19.09-26.34c-5.09-12.17,5.94-25.27,19.06-23.22c23.27,3.63,46.52,7.35,69.73,11.34
		c4.12,0.71,6.55,0.02,9.05-3.42c5.2-7.16,11-13.88,16.34-20.94c0.95-1.25,1.45-3.38,1.17-4.92c-1.14-6.24-0.25-12.09,2.11-17.92
		c0.63-1.56,0.18-3.65-0.06-5.46c-0.14-1.07-1.18-2.04-1.23-3.09c-0.52-10.47-10.5-12.86-16.18-18.88
		c-0.92-0.98-3.26-0.63-5.78-1.02c1.59,4.52,2.63,8.58,4.41,12.28c2.84,5.88,2.05,10.63-2.26,15.63
		c-5.12,5.93-9.43,12.56-14.19,18.81c-2.28,2.99-5.59,3.51-8.18,1.57c-2.61-1.96-2.9-5.11-0.75-8.29c0.35-0.52,0.74-1.01,1.11-1.51
		c4.24-5.71,8.41-11.47,12.75-17.09c1.37-1.77,1.67-3.27,0.86-5.41c-2.42-6.4-4.49-12.94-6.95-19.33c-0.66-1.72-2-3.38-3.45-4.57
		c-2.88-2.37-6-4.47-9.11-6.54c-0.99-0.66-2.3-0.85-3.98-1.43c0.59,8.72,1.01,16.66,1.72,24.57c0.3,3.33-0.63,5.75-3.28,7.78
		c-7.12,5.46-14.14,11.07-21.23,16.58c-3.42,2.66-6.79,2.56-8.92-0.14c-2.21-2.79-1.57-5.83,1.97-8.65
		c5.96-4.73,12-9.35,17.91-14.14c0.94-0.76,2.01-2.15,1.96-3.21c-0.28-7.08-0.84-14.14-1.29-20.87c-5.21-1.5-10.01-2.75-14.71-4.31
		c-2.13-0.71-2.85,0.29-3.77,1.8c-4.03,6.6-8.21,13.1-12.18,19.72c-1.64,2.73-3.76,3.98-6.99,4.07c-9.1,0.25-18.19,0.8-27.29,1.13
		c-4.5,0.16-7.46-2.7-6.78-6.41c0.58-3.14,2.61-4.64,5.79-4.77c7.85-0.3,15.71-0.52,23.55-1.09c1.53-0.11,3.46-1.3,4.34-2.58
		c3.35-4.91,6.35-10.06,9.73-15.51c-0.91-0.11-1.35-0.26-1.76-0.21c-19.57,2.64-38.23-1.7-56.54-7.78
		c-31.55-10.47-60.82-25.53-88.03-44.62c-1.56-1.09-3.56-1.73-5.45-2.15c-22.2-4.95-39.88-16.19-50.23-37.01
		c-2.72-5.48-3.84-11.76-5.69-17.67C70.98,257.44,70.98,253.45,70.98,249.46z M332.25,371.72c3.96,2.76,7.23,5.28,10.72,7.41
		c9.55,5.82,21.3,2.54,26.62-7.3c0.89-1.64,1.64-3.36,2.48-5.02c2.1-4.16,5.07-5.55,8.32-3.89c3.05,1.55,3.65,4.7,1.85,8.76
		c-3.33,7.5-7.6,14.2-15.32,18.05c10.35,10.7,27.75,10.09,36.61-1.57c8.51-11.2,16.45-22.87,24.08-34.69
		c5.98-9.26,3.05-21.83-6.24-27.66c-4.11-2.58-8.99-3.94-13.68-5.92c-4.39,8.9-8.34,17.21-12.61,25.35c-0.94,1.8-2.78,3.71-4.61,4.3
		c-1.45,0.47-4.4-0.5-5.11-1.73c-1-1.73-1.37-4.67-0.58-6.45c3.8-8.52,8.22-16.76,12.18-25.22c4.09-8.76,0.44-19.39-8.57-22.3
		c-7.07-2.29-14.76-2.64-21.76-3.79c-5.57,18.45-11.09,35.9-16.06,53.49C347.41,354.77,342.92,364.89,332.25,371.72z M354.3,501.56
		c-2.96-1.16-5.9-1.76-8.15-3.34c-2.3-1.62-4.06-1.9-6.3-0.35c-0.81,0.56-1.79,0.86-2.71,1.24c-3.82,1.6-6.97,0.82-8.39-2.05
		c-1.53-3.1-0.19-6.41,3.71-8.05c4.31-1.81,8.22-3.68,7.4-9.51c-0.03-0.01-0.36-0.2-0.71-0.26c-22.61-3.7-45.21-7.46-67.86-10.92
		c-1.92-0.29-4.98,0.98-6.02,2.53c-1.14,1.69-1.42,4.98-0.53,6.81c2.39,4.9,5.1,9.84,8.67,13.9c3.37,3.83,7.65,7.17,12.13,9.64
		c6.4,3.53,13.34,4.74,20.13,0.28c1.01-0.66,2.26-1.1,3.46-1.3c2.78-0.45,4.89,0.65,6.03,3.28c1.17,2.69,0.29,4.89-1.89,6.59
		c-0.87,0.67-1.95,1.09-2.96,1.56c-8.79,4.13-17.58,8.25-26.37,12.36c-2.6,1.22-4.15,3.11-4.13,6.08c0.02,2.97,1.56,4.93,4.2,6.04
		c4.47,1.88,8.9,3.91,13.49,5.47c13.49,4.59,31.1,0.17,39.02-10.84C343.16,521.46,348.46,511.24,354.3,501.56z M295.53,363.65
		c18.09,8.25,36.86,0.53,42.39-17.32c5.45-17.6,10.73-35.25,15.97-52.91c3.3-11.11-4.68-21.11-16.29-20.48
		c-6.97,0.38-13.93,0.95-20.89,1.48c-4.41,0.33-8.82,0.74-13.31,1.12c4.24,13.11,6.75,26.09,7.55,39.29
		C312.04,332.84,310.92,350.41,295.53,363.65z M381.38,427.21c-3.79,7.34-0.54,16.32,7.18,19.6c6.97,2.97,14.07,5.71,21.29,8.02
		c10.36,3.31,21.74-2.75,24.44-13.24c1.34-5.2,1.3-10.75,1.94-16.74c-6.93,1.42-13.12,2.7-19.31,3.95
		C404.92,431.22,392.84,435.76,381.38,427.21z M375.31,452.9c-7.55,9.52-15.72,19.71-23.71,30.05c-0.8,1.04-1.17,3.35-0.55,4.32
		c0.74,1.17,2.77,2.18,4.21,2.14c4.34-0.12,8.67-1.15,13-1.15c17.05,0.01,25.39-12.56,34.99-23.31
		C393.95,460.94,384.99,457.07,375.31,452.9z M165.37,283.91c4.59,0.09,8.4-3.52,8.57-8.11c0.16-4.6-3.42-8.42-8.05-8.57
		c-4.8-0.16-8.73,3.53-8.77,8.25C157.08,280.03,160.8,283.82,165.37,283.91z"/>
</g>
</svg>
