<svg id="Layer_1" data-name="Layer 1" xmlns="http://www.w3.org/2000/svg" viewBox="0 0 512 512"><defs><style>.cls-1{fill:#fff;}</style></defs><title>barbecue</title><path d="M241,164.89h6l6.84,12.81h89.74c-.47-5.4-.18-10.37,5.43-12.81h4c6,2.36,5.44,7.93,5.8,12.8h91.52c-.28-5.43-.07-10.44,5.69-12.8h4c5.55,2.51,5.59,7.6,5.42,13.12,11.93,0,23.39-.12,34.84.07a54.71,54.71,0,0,1,12.85,1.39c16.06,4.2,26,18,26,35.91q0,143.49,0,287c0,41.17.06,82.33,0,123.5,0,20.88-15.12,35.92-35.91,36.08-10,.08-20,0-30,0h-7.72c-.13,5.77,1,11.45-4.41,14.92h-6c-5.89-3.31-4.3-9.4-4.93-14.57H358.71c-.36,5.45.88,11.2-4.69,14.57h-6c-5.8-3.37-4-9.51-4.84-14.54H251.81c-.21,5.54.87,11.24-4.8,14.54h-6c-5.7-3.47-3.81-9.6-4.64-14.67H145c-.47,5.41,1,11.43-5,14.67h-6c-5.65-3.52-3.64-9.68-4.57-14.92-12.65,0-24.81,0-37,0C71.08,661.85,56,646.81,56,625.36q0-205.23,0-410.47C56,193.25,71.1,178.21,92.84,178c10.5-.09,21,0,31.5,0,1.75,0,3.5-.16,5.59-.27-.67-5.62-.09-10.25,5.08-12.84h4c6,2.27,5.93,7.64,6,13.13,6.68,0,13,0,19.29,0s9.58,2.81,9.46,7.75c-.12,4.76-3.25,7.2-9.34,7.23-6.44,0-12.87,0-19.33,0v58.52C173,245.35,176.35,245.7,204,256a21.73,21.73,0,0,0,10.22,1c7.33-1,14.55-2.81,22-4.33V193H217.75c-4.44,0-6.8-2.44-7.4-6.58-.71-4.79,2.66-8.24,8.22-8.36,5.91-.14,11.84,0,15.86,0C237.1,172.7,239.06,168.8,241,164.89ZM450.14,531.31c-6.45,5.3-12,10.05-17.74,14.51-3.85,3-7.72,2.28-10.5-1.38-2.66-3.5-2.29-7,1.16-10.18,1.1-1,2.32-1.9,3.49-2.84a218.65,218.65,0,0,0,38.19-38.65c35-46.23,30.05-95.65,2.27-133.84-31.23-42.94-88-50.52-128.54-17.29-20.56,16.86-32,38.57-28.16,65.72,1.74,12.2,6.18,24.13,10.3,35.87,6.11,17.41,7.86,35,4.3,53.08-2,10.12-4.86,20.09-6.35,30.26-3.68,25.25,14.07,43.64,39.36,40.44,8.26-1,16.31-4.26,24.26-7,5.77-2,9.46-1.56,11.62,2.74s.64,8.68-5.25,10.9a207.6,207.6,0,0,1-25.63,8c-3.68.86-4.46,2.06-4.44,5.41.14,15.17.06,30.33.06,45.5v14.06h91.6ZM343.51,646.68c0-21.06.07-41.54-.17-62,0-1.31-2.31-3.3-3.89-3.75-10.93-3.11-20.09-8.72-26.87-18-11.27-15.4-11.74-32.26-7.21-50,2.63-10.29,5.2-20.69,6.46-31.2,1.93-16.1-4.35-30.73-10.17-45.29-4.56-11.4-7.53-23.24-7.31-35.49.61-34.23,17-59.76,44.81-78.56,3.16-2.14,4.46-4.07,4.45-7.89-.14-38.48-.09-77-.09-115.46v-5.68H252.28a7.25,7.25,0,0,0-.49,1.65c0,20.16-.1,40.32,0,60.48,0,1.3,1.28,2.82,2.34,3.85,4.74,4.59,9.53,9.15,14.51,13.48,1.2,1,3.36,2,4.76,1.62,4.51-1.11,8.77-3.32,13.3-4.2,10.41-2,17.94-7,20.91-17.68a4.63,4.63,0,0,1,.43-.9c2.51-4.38,5.91-5.67,9.94-3.79,4.23,2,5.57,5.79,3.48,10.43-1.48,3.29-3.17,6.49-4.88,9.95,3.38,1.73,6.34,3.21,9.27,4.75,5.23,2.74,6.81,6.57,4.54,10.88s-6,5.11-11.11,2.6c-3.59-1.75-7.09-3.67-10.72-5.35-1.28-.59-3-1.27-4.18-.9-9.65,3-19.23,6.28-28.73,9.44a12,12,0,0,0-.22,1.84c1.5,18.31-5.65,32.29-20.88,42.45a7.69,7.69,0,0,0-2.75,5.53c-.19,21.82-.12,43.65-.1,65.48,0,1.43.24,2.86.38,4.48l2.79.17c15.72,1,27.14,11.07,29.28,25.75,2.31,15.85-5.54,29.25-20.42,34.77-3.12,1.16-6.31,2.12-9.37,3.42-1,.44-2.49,1.59-2.52,2.45-.19,7.75-.11,15.51-.11,23.15,3.89.52,7.07.62,10.09,1.39C274,503.6,282.89,514.68,284,527.78c1.2,14.38-5.21,25.92-17.5,31.25a69.43,69.43,0,0,1-10.31,3.74c-3.5.9-4.58,2.66-4.55,6.29.16,24.32.08,48.65.09,73,0,1.46.15,2.92.25,4.65Zm121.86.29c11.26,0,21.75,0,32.24,0,3.49,0,7.07.22,10.45-.45,10.2-2,16-10.24,16-22.16q0-154.2,0-308.41,0-50.73,0-101.47c0-11.14-6.34-20-16.84-20.77-13.69-1-27.51-.25-41.52-.25a29.54,29.54,0,0,0-.33,3q0,67.48.07,135a9.78,9.78,0,0,0,2.16,5.23c5.74,7.74,12.29,15,17.4,23.08,16.2,25.7,23.29,53.59,17.89,83.93-4.61,26-17.12,48.1-34.14,67.85a13.28,13.28,0,0,0-3.47,9.41q.17,60,.07,120Zm-336.26-.1c.34-.82.58-1.12.58-1.42.05-12,0-24,.17-36,.06-3.48-.52-5.13-4.61-5.83-12.89-2.18-22.65-13.13-24.76-26.77-1.84-11.91,4.15-23.64,15.54-30a64.83,64.83,0,0,1,10.43-4.74c2.73-.94,3.49-2.38,3.4-5.11-.19-6-.25-12,0-18,.16-3.5-.82-4.76-4.49-5.4C112.88,511.48,103,501,100.85,488.42c-2.23-13,3-24.47,14.66-31.28a51.78,51.78,0,0,1,10.39-4.81c3.13-1,4-2.57,4-5.72q-.19-33.25,0-66.49a8.4,8.4,0,0,0-3.67-7.47,69.9,69.9,0,0,1,.18-110.11,7.89,7.89,0,0,0,3.49-7.05c-.15-19.16-.07-38.32-.09-57.49,0-1.58-.17-3.17-.27-5H95.45C78.62,193,71,200.61,71,217.37q0,202.72,0,405.44c0,1.83-.07,3.67.07,5.49.74,9.65,8.44,18.12,17.93,18.45C102.32,647.22,115.65,646.87,129.11,646.87ZM255,280.54a25.49,25.49,0,0,0-28.92-10.83c-12.14,3.92-23.15,2.73-34.71-2.59-24.57-11.3-54.33-1.57-68.53,21.51a55.11,55.11,0,0,0,11,71C160.3,382,199,375.47,217.41,346c4.14-6.62,9.8-12.52,15.64-17.77,4.36-3.92,10.09-6.34,15.3-9.27,8.23-4.62,13.43-14.86,11.85-24.22-5.71,1.84-11.36,3.7-17,5.48s-9.42.09-10.85-4.59c-1.34-4.41.83-7.85,6.16-9.64S249.42,282.38,255,280.54ZM358.9,193.32V312.61c31.9-10.48,62.25-8.49,91.14,9.28V193.32ZM145,445.43c4.85-1.65,9.05-3.11,13.28-4.52,5.75-1.91,9.27-.56,11,4.17s-.29,7.93-6.12,10c-12.23,4.32-24.52,8.47-36.72,12.87-9.15,3.3-12.88,11.42-9.69,20.44s11,12.94,20.32,9.92c5.22-1.68,10.37-3.57,15.56-5.37q52.07-18.1,104.15-36.18c6-2.06,10.84-5,12.32-11.76,2.39-10.92-6.56-24.86-21.7-19.22-12.93,4.83-26.05,9.12-39.09,13.65-7.32,2.54-11,1.4-12.68-3.93-1.57-4.9.64-7.8,7.92-10.34,9.58-3.35,19.12-6.8,28.77-9.92,3.14-1,4.5-2.28,4.46-5.85-.19-20-.08-40-.11-60a32.71,32.71,0,0,0-.38-3.54l-.93-.92C215.29,381.59,185.42,395.05,145,384Zm91.4,124.26c-30.12,10.49-59.49,20.67-88.78,31.09-1.34.48-2.69,3.11-2.72,4.76-.24,11.66-.13,23.32-.13,35v6h91.63Zm16.4-55.2c-1.4.37-4.18.93-6.83,1.85-16.82,5.8-33.61,11.69-50.42,17.54q-34.4,12-68.8,23.94c-6.17,2.14-10.3,6-11,12.8-1.31,13,9.34,21.77,21.7,17.53,27.69-9.5,55.31-19.19,83-28.8,13-4.53,26.13-8.93,39.1-13.66,7.82-2.85,11.15-9.63,9.5-18.11C267.58,519.92,261.43,514.49,252.84,514.49ZM144.82,535a7.67,7.67,0,0,0,1.63,0q43.85-15.16,87.64-30.41c1-.36,2.42-1.66,2.45-2.56.2-7.24.11-14.48.11-22.35-4.67,1.6-8.56,2.93-12.45,4.28-25.13,8.72-50.27,17.41-75.35,26.29-1.61.57-3.76,2.55-3.85,4C144.6,521,144.82,527.81,144.82,535Z" transform="translate(-42 -164.89)"/><path class="cls-1" d="M461,676.89c5.38-3.47,4.28-9.15,4.41-14.92h7.72c10,0,20,.06,30,0,20.79-.16,35.87-15.2,35.91-36.08.09-41.17,0-82.33,0-123.5q0-143.49,0-287c0-17.89-9.89-31.71-26-35.91a54.71,54.71,0,0,0-12.85-1.39c-11.45-.19-22.91-.07-34.84-.07.17-5.52.13-10.61-5.42-13.12h94v512Z" transform="translate(-42 -164.89)"/><path class="cls-1" d="M135,164.89c-5.17,2.59-5.75,7.22-5.08,12.84-2.09.11-3.84.27-5.59.27-10.5,0-21-.06-31.5,0C71.1,178.21,56,193.25,56,214.89q0,205.23,0,410.47c0,21.45,15.06,36.49,36.46,36.59,12.15.07,24.31,0,37,0,.93,5.24-1.08,11.4,4.57,14.92H42v-512Z" transform="translate(-42 -164.89)"/><path class="cls-1" d="M241,164.89c-1.95,3.91-3.91,7.81-6.58,13.13-4,0-10-.1-15.86,0-5.56.12-8.93,3.57-8.22,8.36.6,4.14,3,6.59,7.4,6.58H236.2v59.7c-7.46,1.52-14.68,3.3-22,4.33A21.73,21.73,0,0,1,204,256c-27.62-10.33-31-10.68-58.86-4.5V193c6.46,0,12.89,0,19.33,0,6.09,0,9.22-2.47,9.34-7.23.12-4.94-3.2-7.7-9.46-7.75s-12.61,0-19.29,0c-.09-5.49,0-10.86-6-13.13Z" transform="translate(-42 -164.89)"/><path class="cls-1" d="M140,676.89c6-3.24,4.53-9.26,5-14.67h91.36c.83,5.07-1.06,11.2,4.64,14.67Z" transform="translate(-42 -164.89)"/><path class="cls-1" d="M247,676.89c5.67-3.3,4.59-9,4.8-14.54h91.37c.83,5-1,11.17,4.84,14.54Z" transform="translate(-42 -164.89)"/><path class="cls-1" d="M354,676.89c5.57-3.37,4.33-9.12,4.69-14.57H450.1c.63,5.17-1,11.26,4.93,14.57Z" transform="translate(-42 -164.89)"/><path class="cls-1" d="M349,164.89c-5.61,2.44-5.9,7.41-5.43,12.81H253.85L247,164.89Z" transform="translate(-42 -164.89)"/><path class="cls-1" d="M456,164.89c-5.76,2.36-6,7.37-5.69,12.8H358.82c-.36-4.87.16-10.44-5.8-12.8Z" transform="translate(-42 -164.89)"/><path class="cls-1" d="M450.14,531.31V646.55h-91.6V632.49c0-15.17.08-30.33-.06-45.5,0-3.35.76-4.55,4.44-5.41a207.6,207.6,0,0,0,25.63-8c5.89-2.22,7.49-6.46,5.25-10.9S388,558,382.18,560c-7.95,2.78-16,6-24.26,7-25.29,3.2-43-15.19-39.36-40.44,1.49-10.17,4.36-20.14,6.35-30.26,3.56-18.07,1.81-35.67-4.3-53.08-4.12-11.74-8.56-23.67-10.3-35.87-3.87-27.15,7.6-48.86,28.16-65.72C379,308.41,435.78,316,467,358.93c27.78,38.19,32.77,87.61-2.27,133.84a218.65,218.65,0,0,1-38.19,38.65c-1.17.94-2.39,1.82-3.49,2.84-3.45,3.21-3.82,6.68-1.16,10.18,2.78,3.66,6.65,4.35,10.5,1.38C438.16,541.36,443.69,536.61,450.14,531.31Zm-21.89-128A34.72,34.72,0,1,0,393.63,438,34.61,34.61,0,0,0,428.25,403.35Z" transform="translate(-42 -164.89)"/><path class="cls-1" d="M343.51,646.68H252c-.1-1.73-.25-3.19-.25-4.65,0-24.32.07-48.65-.09-73,0-3.63,1-5.39,4.55-6.29A69.43,69.43,0,0,0,266.48,559c12.29-5.33,18.7-16.87,17.5-31.25-1.09-13.1-10-24.18-22.14-27.27-3-.77-6.2-.87-10.09-1.39,0-7.64-.08-15.4.11-23.15,0-.86,1.48-2,2.52-2.45,3.06-1.3,6.25-2.26,9.37-3.42,14.88-5.52,22.73-18.92,20.42-34.77-2.14-14.68-13.56-24.72-29.28-25.75l-2.79-.17c-.14-1.62-.38-3.05-.38-4.48,0-21.83-.09-43.66.1-65.48a7.69,7.69,0,0,1,2.75-5.53c15.23-10.16,22.38-24.14,20.88-42.45a12,12,0,0,1,.22-1.84c9.5-3.16,19.08-6.42,28.73-9.44,1.2-.37,2.9.31,4.18.9,3.63,1.68,7.13,3.6,10.72,5.35,5.14,2.51,8.9,1.6,11.11-2.6s.69-8.14-4.54-10.88c-2.93-1.54-5.89-3-9.27-4.75,1.71-3.46,3.4-6.66,4.88-9.95,2.09-4.64.75-8.46-3.48-10.43-4-1.88-7.43-.59-9.94,3.79a4.63,4.63,0,0,0-.43.9c-3,10.64-10.5,15.66-20.91,17.68-4.53.88-8.79,3.09-13.3,4.2-1.4.34-3.56-.58-4.76-1.62-5-4.33-9.77-8.89-14.51-13.48-1.06-1-2.33-2.55-2.34-3.85-.12-20.16-.06-40.32,0-60.48a7.25,7.25,0,0,1,.49-1.65h91.24V199c0,38.49,0,77,.09,115.46,0,3.82-1.29,5.75-4.45,7.89-27.77,18.8-44.2,44.33-44.81,78.56-.22,12.25,2.75,24.09,7.31,35.49,5.82,14.56,12.1,29.19,10.17,45.29-1.26,10.51-3.83,20.91-6.46,31.2-4.53,17.78-4.06,34.64,7.21,50,6.78,9.26,15.94,14.87,26.87,18,1.58.45,3.87,2.44,3.89,3.75C343.58,605.14,343.51,625.62,343.51,646.68Z" transform="translate(-42 -164.89)"/><path class="cls-1" d="M465.37,647v-6.08q0-60-.07-120a13.28,13.28,0,0,1,3.47-9.41c17-19.75,29.53-41.88,34.14-67.85,5.4-30.34-1.69-58.23-17.89-83.93-5.11-8.12-11.66-15.34-17.4-23.08a9.78,9.78,0,0,1-2.16-5.23q-.16-67.47-.07-135a29.54,29.54,0,0,1,.33-3c14,0,27.83-.76,41.52.25,10.5.77,16.82,9.63,16.84,20.77q.06,50.73,0,101.47,0,154.21,0,308.41c0,11.92-5.83,20.17-16,22.16-3.38.67-7,.43-10.45.45C487.12,647,476.63,647,465.37,647Z" transform="translate(-42 -164.89)"/><path class="cls-1" d="M129.11,646.87c-13.46,0-26.79.35-40.1-.12-9.49-.33-17.19-8.8-17.93-18.45-.14-1.82-.07-3.66-.07-5.49q0-202.72,0-405.44C71,200.61,78.62,193,95.45,193h34.07c.1,1.82.27,3.41.27,5,0,19.17-.06,38.33.09,57.49a7.89,7.89,0,0,1-3.49,7.05,69.9,69.9,0,0,0-.18,110.11,8.4,8.4,0,0,1,3.67,7.47q-.21,33.24,0,66.49c0,3.15-.84,4.72-4,5.72a51.78,51.78,0,0,0-10.39,4.81c-11.62,6.81-16.89,18.27-14.66,31.28,2.17,12.59,12,23.06,24.54,25.24,3.67.64,4.65,1.9,4.49,5.4-.27,6-.21,12,0,18,.09,2.73-.67,4.17-3.4,5.11A64.83,64.83,0,0,0,116,546.9c-11.39,6.33-17.38,18.06-15.54,30,2.11,13.64,11.87,24.59,24.76,26.77,4.09.7,4.67,2.35,4.61,5.83-.18,12-.12,24-.17,36C129.69,645.75,129.45,646.05,129.11,646.87Z" transform="translate(-42 -164.89)"/><path class="cls-1" d="M255,280.54c-5.55,1.84-11,3.62-16.49,5.47s-7.5,5.23-6.16,9.64c1.43,4.68,5.26,6.34,10.85,4.59s11.32-3.64,17-5.48c1.58,9.36-3.62,19.6-11.85,24.22-5.21,2.93-10.94,5.35-15.3,9.27-5.84,5.25-11.5,11.15-15.64,17.77-18.4,29.45-57.11,36-83.56,13.65a55.11,55.11,0,0,1-11-71c14.2-23.08,44-32.81,68.53-21.51,11.56,5.32,22.57,6.51,34.71,2.59A25.49,25.49,0,0,1,255,280.54Z" transform="translate(-42 -164.89)"/><path class="cls-1" d="M358.9,193.32H450V321.89c-28.89-17.77-59.24-19.76-91.14-9.28Z" transform="translate(-42 -164.89)"/><path class="cls-1" d="M145,445.43V384c40.38,11.06,70.25-2.4,90.32-39.05l.93.92a32.71,32.71,0,0,1,.38,3.54c0,20-.08,40,.11,60,0,3.57-1.32,4.83-4.46,5.85-9.65,3.12-19.19,6.57-28.77,9.92-7.28,2.54-9.49,5.44-7.92,10.34,1.72,5.33,5.36,6.47,12.68,3.93,13-4.53,26.16-8.82,39.09-13.65,15.14-5.64,24.09,8.3,21.7,19.22-1.48,6.75-6.35,9.7-12.32,11.76q-52.09,18-104.15,36.18c-5.19,1.8-10.34,3.69-15.56,5.37-9.34,3-17.09-.81-20.32-9.92s.54-17.14,9.69-20.44c12.2-4.4,24.49-8.55,36.72-12.87,5.83-2.05,7.78-5.33,6.12-10s-5.21-6.08-11-4.17C154.09,442.32,149.89,443.78,145,445.43Z" transform="translate(-42 -164.89)"/><path class="cls-1" d="M236.44,569.69v76.87H144.81v-6c0-11.67-.11-23.33.13-35,0-1.65,1.38-4.28,2.72-4.76C177,590.36,206.32,580.18,236.44,569.69Z" transform="translate(-42 -164.89)"/><path class="cls-1" d="M252.84,514.49c8.59,0,14.74,5.43,16.23,13.09,1.65,8.48-1.68,15.26-9.5,18.11-13,4.73-26.06,9.13-39.1,13.66-27.65,9.61-55.27,19.3-83,28.8-12.36,4.24-23-4.49-21.7-17.53.68-6.81,4.81-10.66,11-12.8q34.41-11.94,68.8-23.94c16.81-5.85,33.6-11.74,50.42-17.54C248.66,515.42,251.44,514.86,252.84,514.49Z" transform="translate(-42 -164.89)"/><path class="cls-1" d="M144.82,535c0-7.16-.22-14,.18-20.77.09-1.44,2.24-3.42,3.85-4,25.08-8.88,50.22-17.57,75.35-26.29,3.89-1.35,7.78-2.68,12.45-4.28,0,7.87.09,15.11-.11,22.35,0,.9-1.42,2.2-2.45,2.56q-43.78,15.3-87.64,30.41A7.67,7.67,0,0,1,144.82,535Z" transform="translate(-42 -164.89)"/><path d="M428.25,403.35a34.72,34.72,0,1,1-34.79-35A34.53,34.53,0,0,1,428.25,403.35Zm-15-.12a19.73,19.73,0,1,0-20,19.72A19.64,19.64,0,0,0,413.26,403.23Z" transform="translate(-42 -164.89)"/><path class="cls-1" d="M413.26,403.23a19.73,19.73,0,1,1-19.44-19.84A19.57,19.57,0,0,1,413.26,403.23Z" transform="translate(-42 -164.89)"/></svg>