<svg id="Layer_1" data-name="Layer 1" xmlns="http://www.w3.org/2000/svg" viewBox="0 0 384 384"><defs><style>.cls-1{fill:#fff;}</style></defs><title>grill</title><path class="cls-1" d="M106,410V228.89H490v384H309.6c4.56-.56,9.12-1,13.66-1.68,51.08-7.38,93-31.15,124.93-71.59s44.71-86.53,40.08-137.55a182.68,182.68,0,0,0-21.95-71.68c-1.1-2-.95-3.18.7-4.77,5.13-4.91,10.16-9.95,15.1-15.05,9.58-9.89,9.63-24.07,0-33.88q-19.83-20.12-39.95-39.95c-9.78-9.64-24-9.51-33.88.09-4.91,4.79-9.8,9.61-14.52,14.58-1.82,1.91-3.12,2.24-5.65,1q-85.8-43.94-173.47-3.71c-8.67,4-16.72,9.36-24.89,14.37a7.21,7.21,0,0,0-2.58,10.38c2.32,3.69,6.6,4.48,10.82,2,.64-.38,1.26-.79,1.9-1.2,51.87-33,107.14-39.8,163.85-16.31C428.26,284.62,464.9,334.51,473.25,404c4.59,38.16-4.3,74-23.66,107.26-39.3,67.5-121.92,101.36-197.26,80.77-35.67-9.74-65.85-28.4-89.45-56.83-36-43.38-48.68-93.15-38.41-148.59,4.32-23.34,13.64-44.7,26.9-64.37,2.95-4.37,2.31-8.7-1.34-11.23s-8.07-1.51-10.94,2.72A187.07,187.07,0,0,0,109,387.89C107.74,395.23,107,402.65,106,410Zm353.3,11.13c-.1-89.1-72.62-161.58-161.67-161.59S136,332.1,136,421.16s72.77,162,161.86,161.78S459.4,510.16,459.3,421.17ZM174.86,291.06a7.46,7.46,0,1,0-7.25,7.44A7.45,7.45,0,0,0,174.86,291.06Z" transform="translate(-106 -228.89)"/><path d="M106,410c1-7.39,1.74-14.81,3-22.15a187.07,187.07,0,0,1,30.1-74.21c2.87-4.23,7.27-5.26,10.94-2.72s4.29,6.86,1.34,11.23c-13.26,19.67-22.58,41-26.9,64.37C114.2,442,126.88,491.77,162.88,535.15c23.6,28.43,53.78,47.09,89.45,56.83,75.34,20.59,158-13.27,197.26-80.77C469,478,477.84,442.11,473.25,404c-8.35-69.44-45-119.33-109.54-146.07-56.71-23.49-112-16.71-163.85,16.31-.64.41-1.26.82-1.9,1.2-4.22,2.49-8.5,1.7-10.82-2A7.21,7.21,0,0,1,189.72,263c8.17-5,16.22-10.4,24.89-14.37q87.52-40.15,173.47,3.71c2.53,1.29,3.83,1,5.65-1,4.72-5,9.61-9.79,14.52-14.58,9.86-9.6,24.1-9.73,33.88-.09q20.12,19.81,39.95,39.95c9.67,9.81,9.62,24,0,33.88-4.94,5.1-10,10.14-15.1,15.05-1.65,1.59-1.8,2.76-.7,4.77a182.68,182.68,0,0,1,21.95,71.68c4.63,51-8.23,97.25-40.08,137.55s-73.85,64.21-124.93,71.59c-4.54.66-9.1,1.12-13.66,1.68h-24a28.19,28.19,0,0,0-3.24-.66A187.93,187.93,0,0,1,214,593.74c-3.33-1.61-7-4.79-9.95-4.28s-5.46,4.71-8.12,7.31c-6.54,6.38-12.24,13.89-21.84,16.12h-8.24c-7.13-1.86-12.37-6.43-17.38-11.59q-15.24-15.67-30.91-30.91c-5.16-5-9.73-10.25-11.59-17.38v-8.24c1.84-7.14,6.31-12.5,11.61-17.37,3.57-3.29,6.79-6.95,10.38-10.22,1.93-1.75,2-3.07.77-5.36a181.69,181.69,0,0,1-19.85-57.56c-1.14-7-2-14-2.91-21Zm32.59,118.27c-.52.19-.8.21-1,.36-4.17,4.12-8.33,8.23-12.47,12.38-5.67,5.67-5.68,10,0,15.65l34.63,34.64c8.93,8.92,11.56,8.93,20.43,0,3.56-3.55,7.11-7.11,10.84-10.85A196.52,196.52,0,0,1,138.59,528.31ZM456.9,314.58c5.23-5.2,10.19-9.92,14.88-14.89,3.48-3.68,3.53-8.51,0-12.12q-20.08-20.37-40.44-40.45c-3.18-3.15-7.83-3.72-10.9-.87-5.42,5.06-10.31,10.69-15.5,16.17A196.74,196.74,0,0,1,456.9,314.58Z" transform="translate(-106 -228.89)"/><path class="cls-1" d="M106,553c1.86,7.13,6.43,12.37,11.59,17.38q15.67,15.24,30.91,30.91c5,5.16,10.25,9.73,17.38,11.59H106Z" transform="translate(-106 -228.89)"/><path class="cls-1" d="M106,433.24c1,7,1.77,14,2.91,21a181.69,181.69,0,0,0,19.85,57.56c1.24,2.29,1.16,3.61-.77,5.36-3.59,3.27-6.81,6.93-10.38,10.22-5.3,4.87-9.77,10.23-11.61,17.37Z" transform="translate(-106 -228.89)"/><path class="cls-1" d="M174.12,612.89c9.6-2.23,15.3-9.74,21.84-16.12,2.66-2.6,5.08-6.78,8.12-7.31s6.62,2.67,9.95,4.28a187.93,187.93,0,0,0,68.38,18.49,28.19,28.19,0,0,1,3.24.66Z" transform="translate(-106 -228.89)"/><path d="M459.3,421.17c.1,89-72.38,161.6-161.49,161.77S135.87,510.31,136,421.16s72.64-161.58,161.68-161.58S459.2,332.07,459.3,421.17ZM225.09,386.34c0,1.62,0,3.24,0,4.86a16.65,16.65,0,0,0,.15,1.86c3.59,29.12,16.4,53.61,37.7,73.57,12.29,11.52,26.71,19.43,43.86,20.4,38.86,2.19,68.5-30.16,62.6-68.62-5.21-34-36.83-52.46-61.95-49.05-10.6,1.43-21.46,2.78-31.79-1.27a129.53,129.53,0,0,1-18.23-9.26c-10.91-6.43-21.76-3.75-28,7.32C225.94,372.43,224.94,379.27,225.09,386.34Zm131.48,169.2a149.51,149.51,0,0,0,33.86-20.7,6.12,6.12,0,0,0,2.49-5.37q-.09-108.29-.14-216.58a7.4,7.4,0,0,0-2.3-4.94,137.78,137.78,0,0,0-30.8-19.61c-.86-.41-1.8-.66-2.77-1a6.74,6.74,0,0,0-.3,1.28c0,26.19-.05,52.37.05,78.55a5.54,5.54,0,0,0,1.89,3.68A74.42,74.42,0,0,1,358.6,485a6.91,6.91,0,0,0-1.94,4.76c-.14,19.57-.09,39.15-.09,58.72ZM238.68,287a137.56,137.56,0,0,0-35,21.84c-.91.78-1.29,2.6-1.29,3.95q-.09,108.48,0,217a7.35,7.35,0,0,0,2.42,4.9,136.5,136.5,0,0,0,30.85,19.53,24.67,24.67,0,0,0,2.68.93,12.06,12.06,0,0,0,.23-1.43q0-44.52,0-89a9.22,9.22,0,0,0-1.63-4.36c-4.5-7.46-9.69-14.55-13.58-22.31-9.81-19.59-15.58-40.22-12.57-62.41,1.75-12.91,7-24.89,19.14-30.34,8.6-3.85,9.54-9,8.72-16.47a20.91,20.91,0,0,1,0-2.24ZM187.05,517V325.45C138.51,379.55,139.58,464.57,187.05,517ZM408.1,517c48.5-52.53,47.77-140,0-191.35ZM341.59,360.18c0-26.14,0-51.55-.07-77a3.13,3.13,0,0,0-1.65-2.4,137.16,137.16,0,0,0-34.47-6v79.78C318,352.91,329.69,355.17,341.59,360.18ZM290,499.83c-6.42-3-12.82-5.45-18.74-8.8s-11.49-7.63-17.41-11.63v81.78A135,135,0,0,0,290,567.69Zm0-226.12c-11.69,2.36-22.77,4.54-33.81,6.94a4,4,0,0,0-2.41,2.89c-.14,18.46-.12,36.92,0,55.38a3.49,3.49,0,0,0,1.37,2.61c6,3.27,12.06,6.38,18.13,9.49,5.22,2.68,10.6,4.72,16.77,4.35ZM305.31,502v65.7a153.56,153.56,0,0,0,32.87-5.43c2.67-.73,3.5-1.82,3.48-4.56-.12-19.46-.06-38.91-.07-58.37,0-1.05-.17-2.1-.3-3.63A76.65,76.65,0,0,1,305.31,502Z" transform="translate(-106 -228.89)"/><path d="M174.86,291.06a7.45,7.45,0,0,1-7.25,7.44,7.54,7.54,0,0,1-7.66-7.44,7.46,7.46,0,1,1,14.91,0Z" transform="translate(-106 -228.89)"/><path class="cls-1" d="M138.59,528.31A196.52,196.52,0,0,0,191,580.54c-3.73,3.74-7.28,7.3-10.84,10.85-8.87,8.88-11.5,8.87-20.43,0L125.13,556.7c-5.65-5.66-5.64-10,0-15.65,4.14-4.15,8.3-8.26,12.47-12.38C137.79,528.52,138.07,528.5,138.59,528.31Z" transform="translate(-106 -228.89)"/><path class="cls-1" d="M456.9,314.58a196.74,196.74,0,0,0-52-52.16c5.19-5.48,10.08-11.11,15.5-16.17,3.07-2.85,7.72-2.28,10.9.87q20.34,20.1,40.44,40.45c3.55,3.61,3.5,8.44,0,12.12C467.09,304.66,462.13,309.38,456.9,314.58Z" transform="translate(-106 -228.89)"/><path class="cls-1" d="M225.09,386.34c-.15-7.07.85-13.91,4.37-20.19,6.21-11.07,17.06-13.75,28-7.32a129.53,129.53,0,0,0,18.23,9.26c10.33,4.05,21.19,2.7,31.79,1.27,25.12-3.41,56.74,15.06,61.95,49.05,5.9,38.46-23.74,70.81-62.6,68.62-17.15-1-31.57-8.88-43.86-20.4-21.3-20-34.11-44.45-37.7-73.57a16.65,16.65,0,0,1-.15-1.86C225.07,389.58,225.09,388,225.09,386.34Zm65,34.54c0,7,0,13.94,0,20.91,0,5,3.15,8.49,7.47,8.49s7.46-3.45,7.47-8.48q.07-20.54,0-41.06c0-5-3.13-8.48-7.47-8.49s-7.44,3.47-7.48,8.48C290.1,407.45,290.14,414.16,290.14,420.88Zm-21.52-13.29c0-6.74,0-13.47,0-20.21,0-5.64-2.71-8.83-7.35-8.86s-7.56,3.25-7.59,8.72q-.07,20.2,0,40.41c0,5.47,3,8.75,7.63,8.69s7.25-3.19,7.3-8.55C268.66,421.06,268.62,414.32,268.62,407.59Zm58,27.15c0,7-.05,14,0,20.95.05,5.09,2.78,8.18,7.14,8.32s7.73-3,7.76-8.16q.17-20.76,0-41.53c0-5.13-3.25-8.27-7.79-8.12-4.35.13-7.06,3.23-7.11,8.33C326.58,421.27,326.63,428,326.63,434.74Z" transform="translate(-106 -228.89)"/><path class="cls-1" d="M356.57,555.54v-7.07c0-19.57-.05-39.15.09-58.72A6.91,6.91,0,0,1,358.6,485a74.42,74.42,0,0,0-.05-114.15,5.54,5.54,0,0,1-1.89-3.68c-.1-26.18-.07-52.36-.05-78.55a6.74,6.74,0,0,1,.3-1.28c1,.35,1.91.6,2.77,1A137.78,137.78,0,0,1,390.48,308a7.4,7.4,0,0,1,2.3,4.94q.17,108.28.14,216.58a6.12,6.12,0,0,1-2.49,5.37A149.51,149.51,0,0,1,356.57,555.54Z" transform="translate(-106 -228.89)"/><path class="cls-1" d="M238.68,287v39.54a20.91,20.91,0,0,0,0,2.24c.82,7.46-.12,12.62-8.72,16.47-12.17,5.45-17.39,17.43-19.14,30.34-3,22.19,2.76,42.82,12.57,62.41,3.89,7.76,9.08,14.85,13.58,22.31a9.22,9.22,0,0,1,1.63,4.36q.13,44.51,0,89a12.06,12.06,0,0,1-.23,1.43,24.67,24.67,0,0,1-2.68-.93,136.5,136.5,0,0,1-30.85-19.53,7.35,7.35,0,0,1-2.42-4.9q-.18-108.49,0-217c0-1.35.38-3.17,1.29-3.95A137.56,137.56,0,0,1,238.68,287Z" transform="translate(-106 -228.89)"/><path class="cls-1" d="M187.05,517c-47.47-52.46-48.54-137.48,0-191.58Z" transform="translate(-106 -228.89)"/><path class="cls-1" d="M408.1,517V325.61C455.87,377,456.6,464.43,408.1,517Z" transform="translate(-106 -228.89)"/><path class="cls-1" d="M341.59,360.18c-11.9-5-23.62-7.27-36.19-5.55V274.85a137.16,137.16,0,0,1,34.47,6,3.13,3.13,0,0,1,1.65,2.4C341.61,308.63,341.59,334,341.59,360.18Z" transform="translate(-106 -228.89)"/><path class="cls-1" d="M290,499.83v67.86a135,135,0,0,1-36.15-6.51V479.4c5.92,4,11.42,8.24,17.41,11.63S283.57,496.86,290,499.83Z" transform="translate(-106 -228.89)"/><path class="cls-1" d="M290,273.71v81.66c-6.17.37-11.55-1.67-16.77-4.35-6.07-3.11-12.14-6.22-18.13-9.49a3.49,3.49,0,0,1-1.37-2.61c-.07-18.46-.09-36.92,0-55.38a4,4,0,0,1,2.41-2.89C267.21,278.25,278.29,276.07,290,273.71Z" transform="translate(-106 -228.89)"/><path class="cls-1" d="M305.31,502a76.65,76.65,0,0,0,36-6.29c.13,1.53.3,2.58.3,3.63,0,19.46,0,38.91.07,58.37,0,2.74-.81,3.83-3.48,4.56a153.56,153.56,0,0,1-32.87,5.43Z" transform="translate(-106 -228.89)"/><path d="M290.14,420.88c0-6.72,0-13.43,0-20.15,0-5,3.16-8.49,7.48-8.48s7.45,3.45,7.47,8.49q.06,20.52,0,41.06c0,5-3.14,8.48-7.47,8.48s-7.43-3.48-7.47-8.49C290.1,434.82,290.14,427.85,290.14,420.88Z" transform="translate(-106 -228.89)"/><path d="M268.62,407.59c0,6.73,0,13.47,0,20.2-.05,5.36-2.79,8.49-7.3,8.55s-7.61-3.22-7.63-8.69q-.1-20.2,0-40.41c0-5.47,3-8.76,7.59-8.72s7.32,3.22,7.35,8.86C268.65,394.12,268.62,400.85,268.62,407.59Z" transform="translate(-106 -228.89)"/><path d="M326.63,434.74c0-6.74-.05-13.47,0-20.21.05-5.1,2.76-8.2,7.11-8.33,4.54-.15,7.75,3,7.79,8.12q.17,20.76,0,41.53c0,5.13-3.25,8.29-7.76,8.16s-7.09-3.23-7.14-8.32C326.58,448.71,326.63,441.72,326.63,434.74Z" transform="translate(-106 -228.89)"/></svg>