<svg id="Layer_1" data-name="Layer 1" xmlns="http://www.w3.org/2000/svg" viewBox="0 0 376.86 383.27"><title>rice</title><path d="M256.47,612.58c-2.82-1.74-5.93-3.14-8.37-5.3-3.65-3.22-4.8-7.74-4.8-12.54,0-5.61-.13-11.23,0-16.84.09-2.6-.79-3.94-3.14-5.15q-56.33-29.07-81.37-87.36a169,169,0,0,1-13.52-65.47c0-5.28,1.29-6.64,7.57-7.61,1.5-9.56,6.61-16.08,16.23-18.75a3.73,3.73,0,0,0,2-2.26c2.89-9.21,9.26-14.15,19.24-15.58-1.07-1.18-1.9-2.15-2.79-3.06l-67-68.49c-4.86-5-6.62-10.8-4.45-17.48a15.94,15.94,0,0,1,12.75-11.34c6.72-1.31,12.19,1.16,16.67,6.22Q166.24,305,187,328.32l32.29,36.35a24.14,24.14,0,0,1,16.1-10.62c1.75-.35,2.91-3.71,4.45-5.84-.76-1.19-1.45-2.33-2.2-3.43q-30.25-44.1-60.51-88.2c-7.39-10.82-2.26-24.32,10.1-26.93,6.87-1.45,13.84,1.76,18.06,8.54,7.71,12.37,15.33,24.81,23,37.21l33.59,54.41c.59.94,1.22,1.86,2.05,3.11a23,23,0,0,1,18.61-2.64c.68.18,1.78-.64,2.5-1.23,6.61-5.35,13.84-6.29,21.76-3.36a5.93,5.93,0,0,0,3.79-.05,22.38,22.38,0,0,1,16.42.05,4.38,4.38,0,0,0,3.68-.77c9.95-8.71,23.12-7.53,31.3,2.78a5.22,5.22,0,0,0,3.84,1.78,21.86,21.86,0,0,1,17.24,5.62,4.26,4.26,0,0,0,3.5.61c11.55-3.39,21.14,1,26.49,12.09a4.3,4.3,0,0,0,2.58,2.07,22.3,22.3,0,0,1,13.89,9.4,4.36,4.36,0,0,0,3.22,1.58c9.34-.29,16,3.73,20.38,11.91a5.25,5.25,0,0,0,2.64,2.25,21,21,0,0,1,13.73,14.67A4.05,4.05,0,0,0,471,392c11.42,6.84,12,7.66,14.49,20.33,5.6,1.33,6.81,2.71,6.55,8.51q-4.66,102.77-95,152c-2.15,1.17-3.14,2.3-3,4.82.22,4.48-.18,9,.11,13.47.69,10.45-3.24,17.86-13.38,21.47ZM473.53,412.66c.27-6.15-2.8-9.67-8.67-10.42-4.34-.55-6-2.26-6.13-6.48-.28-6.76-2.72-9.55-9.61-10.54a6,6,0,0,1-5.46-4.8c-2.07-7.4-6.63-9.78-13.82-7.27-4.54,1.59-7.2.26-8.56-4.28-1.79-6-4.66-8-10.93-7.82-4.82.17-6.7-1.34-7.17-6-.41-3.93-2.15-6.94-5.84-8.45s-7-.79-10.12,1.7c-4.27,3.41-7.25,2.71-10-2.1-3.06-5.48-7.89-7-13.58-4.2-4.82,2.35-7.7,1.09-9.28-4.1-1.4-4.56-4.54-7.28-8.71-7.52s-7.36,1.83-9.38,6.07c-2.64,5.52-6.24,6.13-10.75,1.83-3.6-3.43-8.31-4.13-12.23-1.26-3.36,2.45-6.14,2.34-9.49,0-4.5-3.17-9.91-2-13.13,2.51-3.43,4.75-4.86,5.1-9.9,2.43-5.71-3-11.87-.61-13.91,5.43-1.9,5.65-3.37,6.52-9,5.3-5.46-1.18-9.95,1.47-11.55,6.81-1.7,5.7-2.22,6.07-8.41,6-5.72,0-9.63,3.67-9.92,9.41-.36,7-3.79,8.86-10.09,5.39-5.15-2.85-10.59-1.3-13.4,3.81s-4.26,5.73-9.84,3.71a9.47,9.47,0,0,0-13,8.63c-.35,7-1.11,7.78-8.11,8-5,.13-8.51,3.37-8.71,8.22h4.48c9.61,0,19.21,0,28.82,0,3.52,0,5.84,2.31,5.88,5.44s-2.21,5.43-5.69,5.72c-1,.08-2,0-3,0H156c1.53,10.22,2.84,19.82,4.47,29.36.94,5.5,1.18,5.46,6.87,5.46h241a29.12,29.12,0,0,1,5.21.27,5.46,5.46,0,0,1-.14,10.75,34.15,34.15,0,0,1-4.85.19H165.08c.47,1.53.71,2.47,1,3.38,15.2,40.4,41.94,70.53,80.48,90.05a19.15,19.15,0,0,0,7.8,1.83c7.48.25,15,0,22.45.11,3.84,0,6.23,2.2,6.28,5.45s-2.41,5.5-6.13,5.73c-1.37.08-2.75,0-4.12,0H254.54c0,5.8,0,11.26,0,16.72,0,6.5,1.66,8.11,8.25,8.11H374.7c1,0,2.27.35,2.94-.13,1.79-1.28,4.61-2.81,4.74-4.43.53-6.64.22-13.34.22-20.27h-4.79q-37.43,0-74.85,0a15.78,15.78,0,0,1-5.14-.64c-2.52-.9-3.55-3-3.26-5.67a5,5,0,0,1,4.5-4.76,21.06,21.06,0,0,1,3.73-.13c26.82,0,53.64,0,80.46-.07a16.46,16.46,0,0,0,7.12-1.62q57.57-29.18,80.53-89.55c.46-1.22.81-2.47,1.35-4.11-9.93,0-19.27,0-28.61,0-3.12,0-6.25.09-9.35-.15a5,5,0,0,1-4.92-5.13c-.15-3.2,1.53-5.18,4.69-5.74a20.94,20.94,0,0,1,3.72-.19c10.86,0,21.71,0,32.56,0,6.2,0,5.39,1.05,6.56-5.38,1.75-9.61,2.92-19.32,4.41-29.42H223.16c-5,0-7.72-1.94-7.8-5.55s2.62-5.65,7.59-5.67H473.53ZM255,340.5c-.39-.75-.73-1.54-1.18-2.26Q225,291.53,196.18,244.82a12.74,12.74,0,0,0-1.73-2.43c-2.12-2.1-4.6-2.53-7.1-.8a5.14,5.14,0,0,0-2,6.87,24.21,24.21,0,0,0,2.17,3.47c19.66,28.65,39.4,57.23,58.88,86C248.9,341.59,251.22,342.39,255,340.5Zm-47.83,27.71c-.81-1-1.48-1.87-2.21-2.7q-29.53-33.3-59.09-66.58c-3.14-3.55-6.24-7.14-9.48-10.59-2.54-2.69-5.85-2.75-8.29-.41-2.27,2.18-2.24,5.26.12,8,.48.57,1,1.08,1.56,1.62q34.52,35.3,69,70.61a28.5,28.5,0,0,1,2.22,2.88Z" transform="translate(-115.21 -229.31)"/></svg>