<svg id="Layer_1" data-name="Layer 1" xmlns="http://www.w3.org/2000/svg" viewBox="0 0 383.31 322.02"><title>soup</title><path d="M.35,192.77c.59-2.4,1.12-4.82,1.8-7.2a48.4,48.4,0,0,1,17.84-26l2.8-2.12a74.37,74.37,0,0,1-6.61-36.07c.93-17.5,5.34-34,15.86-48.29A49.35,49.35,0,0,1,42.27,62.76c11.28-8.39,25-7.82,35.73,1.58,4.55,4,8.25,8.91,12.64,13.74.46-.33,1.47-1,2.41-1.71a160.82,160.82,0,0,1,220.08,21,30.46,30.46,0,0,1,3,3.79,5.14,5.14,0,0,1-1.06,7.08c-2.26,2-4.78,2-7.15.1a16.65,16.65,0,0,1-2.3-2.45C253.35,44.55,161.1,36,98.29,86.44,95.9,88.36,95,90,96.47,92.92c1.11,2.16,1.61,4.65,2.5,7.37,1-.68,1.8-1.15,2.51-1.75q41.86-35.64,96.87-33.63c63.81,2.3,119.33,51.23,130,114.29C341,254.12,293.26,323.85,218.91,339.06a136.77,136.77,0,0,1-59.72-1.24c-.6-.15-1.2-.32-1.79-.52-3.33-1.11-5-3.82-4.2-6.88s3.52-4.39,7-3.91c10.22,1.39,20.45,3.7,30.7,3.82a127.11,127.11,0,0,0,125.89-102C330.85,158.77,284.55,90.4,214.62,78.22c-42.21-7.35-79.16,4.12-110.64,33.23a6.56,6.56,0,0,0-2.25,6.17c1.29,13.76-.31,27.13-6.33,39.73a48,48,0,0,1-14.29,17.52,6,6,0,0,0-2,4.24q-.19,40,0,80.08a10.52,10.52,0,0,0,1.34,4.9,127,127,0,0,0,54.79,53,29.33,29.33,0,0,1,3.95,2.11c2.42,1.74,3.2,4.14,1.93,6.9s-3.45,3.54-6.19,3a13.73,13.73,0,0,1-3.45-1.37A138.77,138.77,0,0,1,81.8,287c-.73-1-1.5-1.89-2.83-3.57,0,6.25-.08,11.66.07,17.07,0,.94.94,2,1.66,2.76,24.77,27,55.21,43.51,91.64,48.25,65,8.45,126.37-24.83,154.64-83.66,2.64-5.49,4.75-11.24,6.89-16.94a8.58,8.58,0,0,1,6.93-6c19.75-4.13,31.61-18.84,31.53-39.16,0-5.21.13-10.61-1.12-15.6-3.77-15.08-13.45-24.78-28.71-28.23-4.95-1.12-7.51-3.48-9.37-8.23-3.49-8.9-7.83-17.47-12-26.1-1.28-2.66-2.12-5.12-.06-7.63,2.7-3.31,7.28-2.74,9.46,1.56,4.33,8.54,8.39,17.23,12.33,25.95,1,2.11,1.93,3.35,4.27,4a49.13,49.13,0,0,1,36.47,46.62c.25,11.18-.11,22.19-5.7,32.35-6.77,12.29-16.75,20.59-30.28,24.41a6.41,6.41,0,0,0-4.84,4.31c-22.43,56.12-63.12,91.26-122.43,102.23-52.16,9.63-98.48-4.87-138-40.44-.74-.67-1.45-1.37-2.2-2a9.51,9.51,0,0,0-1.22-.65c0,4.06.06,7.83,0,11.6a19.83,19.83,0,0,1-39.42,2.84,31.49,31.49,0,0,1-.23-5.23v-71c-5.6-2.61-11.18-4.54-16.06-7.6C10.87,241.22,3.51,229.88,1,215.44a9.51,9.51,0,0,0-.66-1.67ZM90.92,127.4c0-18.88-5.18-36.18-13.73-47.76C65.94,64.39,52,64.23,41,79.76c-12.35,17.58-15.9,37.41-12.48,58.39A55.39,55.39,0,0,0,34.42,155c5.11,9.61,13.16,15.59,24.54,15.64,11.56.05,19.47-6.08,25-15.66C89.19,145.83,90.79,135.78,90.92,127.4ZM39.29,244c0-6-.1-11.47,0-16.94a5.55,5.55,0,0,1,5.43-5.68H45c3,.09,5.17,2.36,5.43,5.61.09,1.12,0,2.24,0,3.37v76c0,7.74-.12,15.47,0,23.2.15,6.73,6.61,10.74,12.36,7.82,3.65-1.85,4.83-5,4.83-9V184c0-.81-.11-1.62-.23-2.43h-17v19.92c0,4.75-2,7.29-5.55,7.33s-5.66-2.52-5.67-7.2c0-7.48,0-15-.06-22.45a5.45,5.45,0,0,0-1.15-3.6c-2.94-2.83-6.15-5.38-9.51-8.26-7.64,5-13.36,11.93-15.31,21a82.37,82.37,0,0,0-1.54,20c.51,16.25,8.67,27.67,23.41,34.4A37.34,37.34,0,0,0,39.29,244Z" transform="translate(-0.35 -42.33)"/><path d="M182.35,163.33c0-18.21,9.27-31.49,28.67-32.88,5.51-16.3,15.5-23.67,30.22-22.31s25.91,14.13,28.6,32.73c2.29.32,4.61.64,6.93,1,16.35,2.45,34.55,25.06,21.7,45.59-3.68,5.89-8.68,9.85-15.53,11.34-1.61.34-2.86.56-3.14,2.83-2,16.53-12.6,26-29.21,26.48h-2.88c-6.32,18.84-23.42,26.56-42.57,19-6-2.34-11.38-3.41-18-2.19-13.3,2.47-24.24-9.67-21.2-22.92a21.49,21.49,0,0,0-1.42-14.08,38.94,38.94,0,0,1-1.42-28.11C166.09,170.61,172.66,165.18,182.35,163.33Zm26.8,30.32c5.18-5.19,10-9.89,14.62-14.75a4.2,4.2,0,0,0,.47-3.28c-.93-4-2.1-8-3.15-11.92-1.17-4.37,0-7.34,3.17-8.34,3.64-1.14,6.25.76,7.65,5.54.71,2.41,1.45,4.8,2.53,8.37,1.84-2.24,2.91-3.79,4.24-5.09,2.75-2.7,5.94-2.9,8.29-.72,2.54,2.37,2.43,5.56-.34,8.57-1.36,1.49-2.76,2.94-4.36,4.64,3.36,1,6.13,1.66,8.86,2.54,3.57,1.14,5.24,4,4.31,7.11-.89,3-3.69,4.45-7.17,3.6-4.36-1.06-8.65-2.39-13-3.42-1.05-.25-2.67-.22-3.34.41-4.93,4.68-9.69,9.55-14.8,14.66,2.26.8,4,1.37,5.76,2.05,3.3,1.3,4.88,4.14,4,7-1,3.12-4,4.62-7.54,3.6a64.06,64.06,0,0,1-7.77-2.65c-2.39-1-4-.66-5.85,1.3-4.16,4.47-8.53,8.75-12.94,13-2.56,2.46-5.36,4.67-8.06,7l.85,1.44c8.37-3.56,15.84-.83,23.54,2.26a26.18,26.18,0,0,0,19.06.12c6.12-2.25,8.7-7.34,7.2-13.59-1.12-4.68,1.76-7.84,6.58-7.23.62.08,1.23.2,1.84.33,15.71,3.37,25-4.34,24.33-20.09-.18-3.84,1.83-6.41,5.64-7.15,1.35-.26,2.71-.41,4.07-.59a15.5,15.5,0,0,0,13.05-20c-3-10.77-12.1-16.66-24.4-15.87-5.93.38-8.81-2.68-8.38-8.53a32.34,32.34,0,0,0-.34-8.16c-1.7-9.12-11.39-16.82-20.48-16.55s-13.94,5.73-15.35,16.88c-.62,4.78-3.81,7.12-8.69,6.36-8.84-1.38-16,2.76-18.24,11.39-1,4.09-.76,8.61-.57,12.91.23,5.36-2.34,8.33-7.65,8.09-7.46-.35-12,3.05-13.56,10.38A28.81,28.81,0,0,0,175,203.93c2.94,6.35,4.13,12.76,2,19.58a7.23,7.23,0,0,0,0,1.74,8.42,8.42,0,0,0,1.36-.86c6.8-6.78,13.64-13.53,20.32-20.42a4.4,4.4,0,0,0,.69-3.52c-.79-3.13-2.06-6.14-2.92-9.25-1-3.46.51-6.35,3.44-7.27s5.78.48,7.11,3.78C207.71,189.43,208.27,191.19,209.15,193.65Z" transform="translate(-0.35 -42.33)"/><path d="M97.35,236.49c.06-22.59,11.32-39.11,27.88-44.72,6-2,11.39-1.43,15.83,3.21s4.71,9.83,2.56,15.62c-6.07,16.33-1.56,32.8,11.9,43.69,4.75,3.85,7.26,8.49,5.87,14.69s-5.71,9.55-11.84,11c-17.31,4-36.38-5.25-45.82-22.29C99.52,250,97.35,241.75,97.35,236.49Zm11-3.27c.44,3.07.66,6.2,1.37,9.21,4.11,17.54,19.82,29.19,36,26.68,1.64-.26,3.12-1.57,4.68-2.39-1-1.45-1.61-3.25-2.88-4.3a49.6,49.6,0,0,1-15-54.49c.56-1.57.22-3.46.3-5.21-1.85.09-3.88-.28-5.52.35C116,207.49,108.61,219.44,108.35,233.22Z" transform="translate(-0.35 -42.33)"/><path d="M135.27,112.59A30.29,30.29,0,1,1,105,142.93v-.2A30.32,30.32,0,0,1,135.27,112.59Zm-19,30.36a19.07,19.07,0,0,0,19,19,19.34,19.34,0,0,0,19.08-19.06,19.12,19.12,0,0,0-19.15-19.07H135a18.87,18.87,0,0,0-18.77,19c0,.07,0,.14,0,.21Z" transform="translate(-0.35 -42.33)"/><path d="M181.35,286.14a30.29,30.29,0,1,1,30.39,30.19h-.17A30.28,30.28,0,0,1,181.35,286.14Zm30.3,19a19.08,19.08,0,1,0-19.07-19.09v.21a18.89,18.89,0,0,0,19,18.84h.11Z" transform="translate(-0.35 -42.33)"/></svg>